<?xml version="1.0" encoding="iso-8859-1"?>
<!-- Uploaded to: SVG Repo, www.svgrepo.com, Generator: SVG Repo Mixer Tools -->
<svg fill="#000000" height="800px" width="800px" version="1.1" id="Layer_1" xmlns="http://www.w3.org/2000/svg" xmlns:xlink="http://www.w3.org/1999/xlink" 
	 viewBox="0 0 507.627 507.627" xml:space="preserve">
<g transform="translate(1 1)">
	<g>
		<path d="M447,58.574c-79.36-79.36-209.067-79.36-289.28,0l-77.472,75.355c-0.667,0.384-1.304,0.861-1.888,1.445l-36.693,35.84
			c-0.46,0.46-0.853,0.922-1.19,1.399L1.56,210.467C-0.147,212.174-1,213.88-1,216.44s0.853,4.267,2.56,5.973l72.533,72.533
			c3.413,3.413,8.533,3.413,11.947,0L242.2,143.054c33.28-33.28,87.04-33.28,120.32,0c33.28,33.28,33.28,87.04,0,120.32
			l-77.318,75.262c-0.724,0.397-1.412,0.909-2.042,1.538l-36.693,35.84c-0.535,0.535-0.976,1.073-1.344,1.635l-43.03,41.885
			c-1.707,1.707-2.56,3.413-2.56,5.973s0.853,4.267,2.56,5.973l72.533,72.533c1.707,1.707,3.413,2.56,5.973,2.56
			c1.707,0,4.267-0.853,5.973-2.56l161.28-156.16C526.36,267.64,526.36,137.934,447,58.574z M125.625,232.51l-5.452,5.264
			l-60.442-60.442l24.67-23.97l60.404,60.404L125.625,232.51z M80.067,277.027L19.48,216.44l28.133-27.334l60.508,60.508
			L80.067,277.027z M324.73,443.183l-60.343-60.343l24.747-23.893l60.257,60.257L324.73,443.183z M280.6,486.094l-60.587-60.587
			l32.539-31.461l60.495,60.495L280.6,486.094z M435.053,335.907l-73.117,71.097l-60.358-60.358l72.888-70.472
			c40.107-40.107,40.107-104.96,0-145.067C334.36,91,269.507,91,229.4,131.107l-72.509,70.851l-60.37-60.37l73.146-71.068
			c73.387-72.533,192-72.533,264.533,0C507.587,143.907,507.587,262.52,435.053,335.907z"/>
	</g>
</g>
</svg>