<?xml version="1.0" encoding="utf-8"?><!-- Uploaded to: SVG Repo, www.svgrepo.com, Generator: SVG Repo Mixer Tools -->
<svg width="800px" height="800px" viewBox="0 0 24 24" fill="none" xmlns="http://www.w3.org/2000/svg">
<path d="M11.69 16.15H12.31C13.79 16.15 14.98 14.92 14.98 13.4V6C14.98 4.48 13.78 3.25 12.31 3.25H11.69C10.21 3.25 9.02 4.48 9.02 6V13.39C9.02 14.91 10.22 16.14 11.69 16.14V16.15ZM10.52 6C10.52 5.31 11.05 4.75 11.69 4.75H12.31C12.96 4.75 13.48 5.31 13.48 6V13.39C13.48 14.08 12.95 14.64 12.31 14.64H11.69C11.04 14.64 10.52 14.08 10.52 13.39V6ZM17.75 9.39V13.62C17.75 16.43 15.53 18.71 12.75 18.85V20.75C12.75 21.16 12.41 21.5 12 21.5C11.59 21.5 11.25 21.16 11.25 20.75V18.85C8.47 18.71 6.25 16.43 6.25 13.62V9.39C6.25 8.98 6.59 8.64 7 8.64C7.41 8.64 7.75 8.98 7.75 9.39V13.62C7.75 15.69 9.44 17.38 11.52 17.38H12.49C14.57 17.38 16.26 15.69 16.26 13.62V9.39C16.26 8.98 16.6 8.64 17.01 8.64C17.42 8.64 17.76 8.98 17.76 9.39H17.75Z" fill="#000000"/>
</svg>