<?xml version="1.0" encoding="utf-8"?><!-- Uploaded to: SVG Repo, www.svgrepo.com, Generator: SVG Repo Mixer Tools -->
<svg width="800px" height="800px" viewBox="0 0 24 24" fill="none" xmlns="http://www.w3.org/2000/svg">
<path d="M18 19.25H6C5.27065 19.25 4.57118 18.9603 4.05546 18.4446C3.53973 17.9288 3.25 17.2294 3.25 16.5V10.5C3.25 9.77068 3.53973 9.07121 4.05546 8.55549C4.57118 8.03976 5.27065 7.75003 6 7.75003H6.6L7.78 6.00003C8.03246 5.62455 8.37337 5.31689 8.7727 5.10415C9.17203 4.8914 9.61753 4.7801 10.07 4.78003H13.93C14.3825 4.7801 14.828 4.8914 15.2273 5.10415C15.6266 5.31689 15.9675 5.62455 16.22 6.00003L17.4 7.75003H18C18.7293 7.75003 19.4288 8.03976 19.9445 8.55549C20.4603 9.07121 20.75 9.77068 20.75 10.5V16.5C20.75 17.2294 20.4603 17.9288 19.9445 18.4446C19.4288 18.9603 18.7293 19.25 18 19.25ZM6 9.25003C5.66848 9.25003 5.35054 9.38173 5.11612 9.61615C4.8817 9.85057 4.75 10.1685 4.75 10.5V16.5C4.75 16.8315 4.8817 17.1495 5.11612 17.3839C5.35054 17.6183 5.66848 17.75 6 17.75H18C18.3315 17.75 18.6495 17.6183 18.8839 17.3839C19.1183 17.1495 19.25 16.8315 19.25 16.5V10.5C19.25 10.1685 19.1183 9.85057 18.8839 9.61615C18.6495 9.38173 18.3315 9.25003 18 9.25003H17C16.8776 9.24981 16.7571 9.21961 16.649 9.16209C16.5409 9.10457 16.4486 9.02146 16.38 8.92003L15 6.81003C14.8907 6.64312 14.7427 6.50505 14.5686 6.40756C14.3945 6.31007 14.1994 6.25603 14 6.25003H10.07C9.87056 6.25603 9.67551 6.31007 9.50142 6.40756C9.32733 6.50505 9.17933 6.64312 9.07 6.81003L7.62 8.92003C7.55144 9.02146 7.45909 9.10457 7.35102 9.16209C7.24294 9.21961 7.12243 9.24981 7 9.25003H6Z" fill="#000000"/>
<path d="M12 16.25C11.3572 16.25 10.7289 16.0594 10.1944 15.7023C9.65994 15.3452 9.24338 14.8376 8.99739 14.2437C8.75141 13.6499 8.68705 12.9964 8.81245 12.366C8.93785 11.7355 9.24738 11.1564 9.7019 10.7019C10.1564 10.2474 10.7355 9.93785 11.366 9.81245C11.9964 9.68705 12.6499 9.75141 13.2437 9.99739C13.8376 10.2434 14.3452 10.6599 14.7023 11.1944C15.0594 11.7289 15.25 12.3572 15.25 13C15.2474 13.8611 14.9041 14.6863 14.2952 15.2952C13.6863 15.9041 12.8611 16.2474 12 16.25ZM12 11.25C11.6539 11.25 11.3155 11.3526 11.0278 11.5449C10.74 11.7372 10.5157 12.0105 10.3832 12.3303C10.2508 12.6501 10.2161 13.0019 10.2836 13.3414C10.3512 13.6809 10.5178 13.9927 10.7626 14.2374C11.0073 14.4822 11.3191 14.6489 11.6586 14.7164C11.9981 14.7839 12.3499 14.7492 12.6697 14.6168C12.9895 14.4843 13.2628 14.26 13.4551 13.9722C13.6474 13.6845 13.75 13.3461 13.75 13C13.7474 12.5367 13.5622 12.0931 13.2345 11.7655C12.9069 11.4378 12.4633 11.2526 12 11.25Z" fill="#000000"/>
</svg>