<?xml version="1.0" encoding="utf-8"?><!-- Uploaded to: SVG Repo, www.svgrepo.com, Generator: SVG Repo Mixer Tools -->
<svg width="800px" height="800px" viewBox="0 0 24 24" fill="none" xmlns="http://www.w3.org/2000/svg">
<path d="M18.53 9L13 3.47C12.8595 3.32931 12.6688 3.25018 12.47 3.25H8C7.27065 3.25 6.57118 3.53973 6.05546 4.05546C5.53973 4.57118 5.25 5.27065 5.25 6V18C5.25 18.7293 5.53973 19.4288 6.05546 19.9445C6.57118 20.4603 7.27065 20.75 8 20.75H16C16.7293 20.75 17.4288 20.4603 17.9445 19.9445C18.4603 19.4288 18.75 18.7293 18.75 18V9.5C18.7421 9.3116 18.6636 9.13309 18.53 9ZM13.25 5.81L16.19 8.75H13.25V5.81ZM16 19.25H8C7.66848 19.25 7.35054 19.1183 7.11612 18.8839C6.8817 18.6495 6.75 18.3315 6.75 18V6C6.75 5.66848 6.8817 5.35054 7.11612 5.11612C7.35054 4.8817 7.66848 4.75 8 4.75H11.75V9.5C11.7526 9.69811 11.8324 9.88737 11.9725 10.0275C12.1126 10.1676 12.3019 10.2474 12.5 10.25H17.25V18C17.25 18.3315 17.1183 18.6495 16.8839 18.8839C16.6495 19.1183 16.3315 19.25 16 19.25Z" fill="#000000"/>
<path d="M13.49 14.85C12.8751 14.4642 12.4124 13.8778 12.18 13.19C12.3953 12.5467 12.4603 11.8625 12.37 11.19C12.3412 11.0206 12.2586 10.865 12.1344 10.7462C12.0102 10.6274 11.8511 10.5518 11.6806 10.5305C11.5101 10.5092 11.3372 10.5433 11.1876 10.6279C11.038 10.7125 10.9197 10.843 10.85 11C10.7362 11.8085 10.822 12.6325 11.1 13.4C10.7202 14.2873 10.2963 15.1551 9.83001 16C9.12001 16.4 8.15001 17 8.00001 17.69C7.88001 18.25 8.93001 19.69 10.72 16.57C11.5159 16.2746 12.3312 16.034 13.16 15.85C13.7727 16.2003 14.4561 16.4088 15.16 16.46C15.3216 16.4642 15.4809 16.4206 15.6178 16.3345C15.7546 16.2484 15.863 16.1238 15.9292 15.9764C15.9955 15.8289 16.0167 15.6651 15.9901 15.5056C15.9636 15.3462 15.8905 15.1981 15.78 15.08C15.36 14.65 14.11 14.77 13.49 14.85ZM8.71001 17.85C8.99025 17.3705 9.36034 16.9495 9.80001 16.61C9.12001 17.69 8.71001 17.88 8.71001 17.86V17.85ZM11.63 11.04C11.89 11.04 11.87 12.19 11.69 12.5C11.5544 12.0285 11.5338 11.5312 11.63 11.05V11.04ZM10.76 15.92C11.0988 15.3019 11.3929 14.6602 11.64 14C11.9049 14.493 12.2734 14.9229 12.72 15.26C12.0491 15.4281 11.3934 15.6522 10.76 15.93V15.92ZM15.46 15.74C15.46 15.74 15.28 15.96 14.13 15.46C15.38 15.38 15.59 15.67 15.46 15.75V15.74Z" fill="#000000"/>
</svg>