<?xml version="1.0" encoding="UTF-8"?>
<!-- Uploaded to: SVG Repo, www.svgrepo.com, Generator: SVG Repo Mixer Tools -->
<svg width="800px" height="800px" viewBox="0 0 24 24" version="1.1" xmlns="http://www.w3.org/2000/svg" xmlns:xlink="http://www.w3.org/1999/xlink">
    <title>File-Jpg</title>
    <g id="Page-1" stroke="none" stroke-width="1" fill="none" fill-rule="evenodd">
        <g id="File-Jpg">
            <rect id="Rectangle" fill-rule="nonzero" x="0" y="0" width="24" height="24">

</rect>
            <path d="M4,5 C4,3.89543 4.89543,3 6,3 L15.1716,3 C15.702,3 16.2107,3.21071 16.5858,3.58579 L19.4142,6.41421 C19.7893,6.78929 20,7.29799 20,7.82843 L20,19 C20,20.1046 19.1046,21 18,21 L6,21 C4.89543,21 4,20.1046 4,19 L4,5 Z" id="Path" stroke="#0C0310" stroke-width="2" stroke-linecap="round">

</path>
            <path d="M15,4 L15,6 C15,7.10457 15.8954,8 17,8 L19,8" id="Path" stroke="#0C0310" stroke-width="2" stroke-linecap="round">

</path>
            <path d="M8.76,15.548 C8.76,15.716 8.74,15.892 8.7,16.076 C8.664,16.26 8.594,16.43 8.49,16.586 C8.39,16.738 8.248,16.864 8.064,16.964 C7.884,17.064 7.65,17.114 7.362,17.114 C7.002,17.114 6.702,17.022 6.462,16.838 C6.222,16.65 6.062,16.41 5.982,16.118 L6.888,15.812 C6.916,15.924 6.966,16.014 7.038,16.082 C7.114,16.15 7.206,16.184 7.314,16.184 C7.482,16.184 7.592,16.126 7.644,16.01 C7.7,15.894 7.728,15.742 7.728,15.554 L7.728,12.752 L8.76,12.752 L8.76,15.548 Z M12.8358,14.06 C12.8358,14.308 12.7898,14.518 12.6978,14.69 C12.6058,14.858 12.4818,14.994 12.3258,15.098 C12.1698,15.202 11.9898,15.278 11.7858,15.326 C11.5818,15.374 11.3698,15.398 11.1498,15.398 L10.6398,15.398 L10.6398,17 L9.61378,17 L9.61378,12.752 L11.1738,12.752 C11.4058,12.752 11.6218,12.776 11.8218,12.824 C12.0258,12.868 12.2018,12.942 12.3498,13.046 C12.5018,13.146 12.6198,13.28 12.7038,13.448 C12.7918,13.612 12.8358,13.816 12.8358,14.06 Z M11.8098,14.066 C11.8098,13.966 11.7898,13.884 11.7498,13.82 C11.7098,13.756 11.6558,13.706 11.5878,13.67 C11.5198,13.634 11.4418,13.61 11.3538,13.598 C11.2698,13.586 11.1818,13.58 11.0898,13.58 L10.6398,13.58 L10.6398,14.582 L11.0718,14.582 C11.1678,14.582 11.2598,14.574 11.3478,14.558 C11.4358,14.542 11.5138,14.514 11.5818,14.474 C11.6538,14.434 11.7098,14.382 11.7498,14.318 C11.7898,14.25 11.8098,14.166 11.8098,14.066 Z M17.2257,16.742 C17.0177,16.85 16.7737,16.938 16.4937,17.006 C16.2177,17.074 15.9157,17.108 15.5877,17.108 C15.2477,17.108 14.9337,17.054 14.6457,16.946 C14.3617,16.838 14.1157,16.686 13.9077,16.49 C13.7037,16.294 13.5437,16.06 13.4277,15.788 C13.3117,15.512 13.2537,15.206 13.2537,14.87 C13.2537,14.53 13.3117,14.222 13.4277,13.946 C13.5477,13.67 13.7117,13.436 13.9197,13.244 C14.1277,13.048 14.3717,12.898 14.6517,12.794 C14.9317,12.69 15.2337,12.638 15.5577,12.638 C15.8937,12.638 16.2057,12.69 16.4937,12.794 C16.7817,12.894 17.0157,13.03 17.1957,13.202 L16.5477,13.94 C16.4477,13.824 16.3157,13.73 16.1517,13.658 C15.9877,13.582 15.8017,13.544 15.5937,13.544 C15.4137,13.544 15.2477,13.578 15.0957,13.646 C14.9437,13.71 14.8117,13.802 14.6997,13.922 C14.5877,14.038 14.4997,14.178 14.4357,14.342 C14.3757,14.502 14.3457,14.678 14.3457,14.87 C14.3457,15.066 14.3737,15.246 14.4297,15.41 C14.4857,15.574 14.5677,15.716 14.6757,15.836 C14.7877,15.952 14.9237,16.044 15.0837,16.112 C15.2477,16.176 15.4337,16.208 15.6417,16.208 C15.7617,16.208 15.8757,16.2 15.9837,16.184 C16.0917,16.164 16.1917,16.134 16.2837,16.094 L16.2837,15.32 L15.4737,15.32 L15.4737,14.492 L17.2257,14.492 L17.2257,16.742 Z" id="Shape" fill="#0C0310" fill-rule="nonzero">

</path>
        </g>
    </g>
</svg>